<svg xmlns="http://www.w3.org/2000/svg" viewBox="0 0 512 512">
  <defs>
    <radialGradient id="bg" cx="30%" cy="20%" r="90%">
      <stop offset="0%" stop-color="#1e3a8a"/>
      <stop offset="100%" stop-color="#020617"/>
    </radialGradient>
    <linearGradient id="sheet" x1="0%" y1="0%" x2="100%" y2="100%">
      <stop offset="0%" stop-color="#ffffff"/>
      <stop offset="100%" stop-color="#dbeafe"/>
    </linearGradient>
  </defs>
  <rect width="512" height="512" fill="url(#bg)"/>
  <circle cx="256" cy="256" r="182" fill="#0f172a" opacity=".22"/>
  <path d="M168 118h118l74 74v184c0 24.3-19.7 44-44 44H168c-24.3 0-44-19.7-44-44V162c0-24.3 19.7-44 44-44Z" fill="url(#sheet)"/>
  <path d="M286 118v56c0 19.88 16.12 36 36 36h38" fill="#bfdbfe"/>
  <rect x="176" y="234" width="148" height="18" rx="9" fill="#93c5fd"/>
  <rect x="176" y="276" width="104" height="18" rx="9" fill="#93c5fd"/>
  <rect x="176" y="318" width="88" height="18" rx="9" fill="#93c5fd"/>
  <circle cx="334" cy="326" r="58" fill="#22c55e"/>
  <path d="m309 326 16 16 30-34" fill="none" stroke="#fff" stroke-linecap="round" stroke-linejoin="round" stroke-width="16"/>
</svg>
