<svg xmlns="http://www.w3.org/2000/svg" viewBox="0 0 512 512">
  <defs>
    <linearGradient id="bg" x1="0%" y1="0%" x2="100%" y2="100%">
      <stop offset="0%" stop-color="#0f172a"/>
      <stop offset="100%" stop-color="#1d4ed8"/>
    </linearGradient>
    <linearGradient id="accent" x1="0%" y1="0%" x2="100%" y2="100%">
      <stop offset="0%" stop-color="#22c55e"/>
      <stop offset="100%" stop-color="#14b8a6"/>
    </linearGradient>
  </defs>
  <rect width="512" height="512" rx="128" fill="url(#bg)"/>
  <path d="M124 150c0-14.36 11.64-26 26-26h126c14.36 0 26 11.64 26 26v28h54c18.78 0 34 15.22 34 34v150c0 14.36-11.64 26-26 26H148c-14.36 0-26-11.64-26-26V150Z" fill="#e2e8f0" opacity=".16"/>
  <path d="M160 126h128c17.67 0 32 14.33 32 32v38h42c17.67 0 32 14.33 32 32v148c0 17.67-14.33 32-32 32H160c-17.67 0-32-14.33-32-32V158c0-17.67 14.33-32 32-32Z" fill="#f8fafc"/>
  <path d="M208 106h56c14.36 0 26 11.64 26 26v18h-108v-18c0-14.36 11.64-26 26-26Z" fill="#cbd5e1"/>
  <rect x="180" y="220" width="160" height="18" rx="9" fill="#94a3b8"/>
  <rect x="180" y="260" width="110" height="18" rx="9" fill="#94a3b8"/>
  <rect x="180" y="300" width="90" height="18" rx="9" fill="#94a3b8"/>
  <circle cx="334" cy="306" r="64" fill="url(#accent)"/>
  <path d="m307 306 19 19 35-40" fill="none" stroke="#ffffff" stroke-linecap="round" stroke-linejoin="round" stroke-width="18"/>
</svg>
